<svg width="13" height="8" viewBox="0 0 13 8" fill="none" xmlns="http://www.w3.org/2000/svg">
<path d="M10.2941 6.9658L6.00409 2.6658L1.71409 6.9658C1.52579 7.1541 1.27039 7.25989 1.00409 7.25989C0.73779 7.25989 0.482395 7.1541 0.294092 6.9658C0.105788 6.77749 0 6.5221 0 6.2558C0 5.98949 0.105788 5.7341 0.294092 5.5458L5.29409 0.545797C5.38705 0.452069 5.49766 0.377673 5.61951 0.326904C5.74137 0.276135 5.87208 0.249998 6.00409 0.249998C6.1361 0.249998 6.26681 0.276135 6.38867 0.326904C6.51053 0.377673 6.62113 0.452069 6.71409 0.545797L11.7141 5.5458C11.8073 5.63903 11.8813 5.74972 11.9318 5.87155C11.9822 5.99337 12.0082 6.12394 12.0082 6.2558C12.0082 6.38766 11.9822 6.51822 11.9318 6.64005C11.8813 6.76187 11.8073 6.87256 11.7141 6.9658C11.6209 7.05904 11.5102 7.133 11.3883 7.18346C11.2665 7.23392 11.136 7.25989 11.0041 7.25989C10.8722 7.25989 10.7417 7.23392 10.6198 7.18346C10.498 7.133 10.3873 7.05904 10.2941 6.9658Z" fill="white"/>
</svg>
